# xmcd
# Copyright (C) 1995-1998 Ti Kan
#
# Track frame offsets:
#       150
#       8189
#       19963
#
# Disc length: 389 seconds
#
# Revision: 0
# Processed by: cddbd v1.5.2PL0 Copyright (c) Steve Scherf et al.
# Submitted via: CD-Import v1.0
#
DISCID=1a018303
DTITLE=Various Voodoorhythm Bands - Voodoo Hits
DYEAR=1900
DGENRE=
TTITLE0=Boots On Fire
TTITLE1=Goodbye Baby
TTITLE2=Little Pretty Girls Killer
EXTD=
EXTT0=
EXTT1=
EXTT2=
PLAYORDER=
